<?xml version="1.0" encoding="utf-8"?>
<svg version="1.1" id="Layer_1" xmlns="http://www.w3.org/2000/svg" x="0px" y="0px"
	 viewBox="0 0 30 30" style="enable-background:new 0 0 30 30;" xml:space="preserve">
<style type="text/css">
	.st0{fill:#3A3D99;}
</style>
<g id="Layer_2_1_">
	<g id="Layer_1-2">
		<path class="st0" d="M30,15c0,8.3-6.7,15-15,15S0,23.3,0,15S6.7,0,15,0S30,6.7,30,15z M18.4,14.3c0.2,0,0.5,0,0.7,0.1v-3.3L14,8.9
			l-5.1,2.2v3.4c0,3.1,2.1,5.9,5.1,6.7c0.4-0.1,0.7-0.2,1.1-0.4c-1.3-1.8-0.9-4.4,1-5.7C16.8,14.6,17.6,14.3,18.4,14.3L18.4,14.3z
			 M18.4,15.7c-1.5,0-2.7,1.2-2.7,2.7s1.2,2.7,2.7,2.7s2.7-1.2,2.7-2.7S19.9,15.7,18.4,15.7z M18.4,16.6c0.4,0,0.8,0.3,0.8,0.8
			c0,0.4-0.3,0.8-0.8,0.8c-0.4,0-0.8-0.3-0.8-0.8l0,0C17.6,17,18,16.6,18.4,16.6z M18.4,20.3c-0.6,0-1.2-0.3-1.5-0.8
			c0-0.5,1-0.7,1.5-0.7s1.5,0.3,1.5,0.7C19.6,20,19,20.3,18.4,20.3z"/>
	</g>
</g>
</svg>
