<?xml version="1.0" encoding="utf-8"?>
<!-- Generator: Adobe Illustrator 25.2.0, SVG Export Plug-In . SVG Version: 6.00 Build 0)  -->
<svg version="1.1" id="Layer_1" xmlns="http://www.w3.org/2000/svg" xmlns:xlink="http://www.w3.org/1999/xlink" x="0px" y="0px"
	 viewBox="0 0 16.3 18.2" style="enable-background:new 0 0 16.3 18.2;" xml:space="preserve">
<style type="text/css">
	.st0{fill:#F9B42D;}
	.st1{opacity:0.5;fill-rule:evenodd;clip-rule:evenodd;fill:#F9B42D;enable-background:new    ;}
</style>
<g id="Layer_2_1_">
	<g id="Layer_1-2">
		<g id="Stockholm-icons-_-Design-_-Layers">
			<path id="Shape" class="st0" d="M9.1,13.1L15.5,8l0.1-0.1c0.6-0.5,0.8-1.5,0.3-2.1c-0.1-0.1-0.2-0.2-0.2-0.3L9.1,0.3
				c-0.5-0.4-1.3-0.4-1.9,0L0.6,5.6C0,6.1-0.1,7,0.4,7.7l0.2,0.2L0.8,8l6.4,5.1C7.7,13.6,8.5,13.6,9.1,13.1z"/>
			<path id="Path" class="st1" d="M7.2,15.8l-5.7-4.6c-0.4-0.3-1-0.2-1.3,0.1l0,0c-0.3,0.4-0.2,1,0.2,1.3l0,0l6.9,5.2
				c0.5,0.4,1.3,0.4,1.8,0l6.8-5.2c0.4-0.3,0.5-0.9,0.2-1.3c0,0,0,0,0,0l0,0c-0.3-0.4-0.9-0.5-1.3-0.2c0,0,0,0,0,0l0,0l-5.7,4.6
				C8.5,16.2,7.7,16.2,7.2,15.8z"/>
		</g>
	</g>
</g>
</svg>
