<?xml version="1.0" encoding="utf-8"?>
<!-- Generator: Adobe Illustrator 25.2.0, SVG Export Plug-In . SVG Version: 6.00 Build 0)  -->
<svg version="1.1" id="Layer_1" xmlns="http://www.w3.org/2000/svg" xmlns:xlink="http://www.w3.org/1999/xlink" x="0px" y="0px"
	 viewBox="0 0 16.3 11.2" style="enable-background:new 0 0 16.3 11.2;" xml:space="preserve">
<style type="text/css">
	.st0{fill:#FAB42C;}
</style>
<g id="Layer_2_1_">
	<g id="Layer_1-2">
		<path class="st0" d="M10.6,6.2H3.9v-2c0-0.2-0.1-0.3-0.3-0.3c-0.1,0-0.2,0-0.2,0.1L0.1,7.4C0,7.5,0,7.6,0.1,7.7l0,0l3.4,3.4
			c0.1,0.1,0.3,0.1,0.4,0C4,11,4,11,4,10.9v-2h6.7c0.3,0,0.6-0.3,0.6-0.6l0,0V6.8C11.2,6.5,10.9,6.2,10.6,6.2L10.6,6.2z M16.2,3.4
			L12.8,0c-0.1-0.1-0.3-0.1-0.4,0c-0.1,0.1-0.1,0.1-0.1,0.2v2H5.6C5.3,2.2,5,2.5,5,2.8v1.6C5.1,4.7,5.3,5,5.6,5l0,0h6.7v2
			c0,0.2,0.1,0.3,0.3,0.3c0.1,0,0.1,0,0.2-0.1l3.4-3.4C16.3,3.7,16.3,3.6,16.2,3.4C16.2,3.5,16.2,3.5,16.2,3.4z"/>
	</g>
</g>
</svg>
