<svg xmlns="http://www.w3.org/2000/svg" viewBox="0 0 29.6 29.6"><defs><style>.cls-1{fill:#fff;}</style></defs><g id="Layer_2" data-name="Layer 2"><g id="Layer_1-2" data-name="Layer 1"><path class="cls-1" d="M13.86,29.6A2.56,2.56,0,0,1,11.3,27v-.78l-.14-.05a11.11,11.11,0,0,1-1.85-.77l-.13-.06-.56.55a2.53,2.53,0,0,1-1.8.75A2.56,2.56,0,0,1,5,25.93L3.67,24.6a2.56,2.56,0,0,1,0-3.62l.55-.56-.06-.13a11.11,11.11,0,0,1-.77-1.85l-.05-.14H2.56A2.56,2.56,0,0,1,0,15.74V13.86A2.56,2.56,0,0,1,2.56,11.3h.78l.05-.14a11.11,11.11,0,0,1,.77-1.85l.06-.13-.55-.56a2.49,2.49,0,0,1-.75-1.8A2.56,2.56,0,0,1,3.67,5L5,3.67a2.56,2.56,0,0,1,3.62,0l.56.55.13-.06a11.11,11.11,0,0,1,1.85-.77l.14-.05V2.56A2.56,2.56,0,0,1,13.86,0h1.88A2.56,2.56,0,0,1,18.3,2.56v.78l.14.05a11.11,11.11,0,0,1,1.85.77l.13.06L21,3.67a2.53,2.53,0,0,1,1.8-.75,2.56,2.56,0,0,1,1.82.75L25.93,5a2.56,2.56,0,0,1,0,3.62l-.55.56.06.13a11.11,11.11,0,0,1,.77,1.85l0,.14H27a2.56,2.56,0,0,1,2.56,2.56v1.88A2.56,2.56,0,0,1,27,18.3h-.79l0,.14a11.11,11.11,0,0,1-.77,1.85l-.06.13.55.56a2.49,2.49,0,0,1,.75,1.8,2.56,2.56,0,0,1-.75,1.82L24.6,25.93a2.56,2.56,0,0,1-3.62,0l-.56-.55-.13.06a11.11,11.11,0,0,1-1.85.77l-.14.05V27a2.56,2.56,0,0,1-2.56,2.56ZM9.07,23.85a.61.61,0,0,1,.34.1,10.29,10.29,0,0,0,2.74,1.13.68.68,0,0,1,.5.66V27a1.21,1.21,0,0,0,1.21,1.2h1.88A1.21,1.21,0,0,0,17,27v-1.3a.68.68,0,0,1,.5-.66A10.29,10.29,0,0,0,20.19,24a.74.74,0,0,1,.35-.1.67.67,0,0,1,.48.2l.92.92a1.17,1.17,0,0,0,.85.35,1.19,1.19,0,0,0,.85-.35L25,23.64a1.19,1.19,0,0,0,.35-.85,1.17,1.17,0,0,0-.35-.85L24.05,21a.68.68,0,0,1-.1-.83,10.63,10.63,0,0,0,1.13-2.74.68.68,0,0,1,.66-.5H27a1.21,1.21,0,0,0,1.2-1.21V13.86A1.21,1.21,0,0,0,27,12.65h-1.3a.68.68,0,0,1-.66-.5A10.63,10.63,0,0,0,24,9.41a.68.68,0,0,1,.1-.83L25,7.66a1.17,1.17,0,0,0,.35-.85A1.19,1.19,0,0,0,25,6L23.64,4.63a1.19,1.19,0,0,0-.85-.35,1.17,1.17,0,0,0-.85.35L21,5.55a.67.67,0,0,1-.48.2.74.74,0,0,1-.35-.1,10.57,10.57,0,0,0-2.74-1.13.68.68,0,0,1-.5-.66V2.56a1.21,1.21,0,0,0-1.21-1.2H13.86a1.21,1.21,0,0,0-1.21,1.2v1.3a.68.68,0,0,1-.5.66A10.29,10.29,0,0,0,9.41,5.65a.74.74,0,0,1-.35.1.67.67,0,0,1-.48-.2l-.92-.92a1.17,1.17,0,0,0-.85-.35A1.19,1.19,0,0,0,6,4.63L4.63,6a1.19,1.19,0,0,0-.35.85,1.17,1.17,0,0,0,.35.85l.92.92a.68.68,0,0,1,.1.83,10.29,10.29,0,0,0-1.13,2.74.68.68,0,0,1-.66.5H2.56a1.21,1.21,0,0,0-1.2,1.21v1.88A1.21,1.21,0,0,0,2.56,17h1.3a.68.68,0,0,1,.66.5,10.29,10.29,0,0,0,1.13,2.74.68.68,0,0,1-.1.83l-.92.92a1.17,1.17,0,0,0-.35.85,1.19,1.19,0,0,0,.35.85L6,25a1.19,1.19,0,0,0,.85.35A1.17,1.17,0,0,0,7.66,25l.92-.92A.72.72,0,0,1,9.07,23.85Z"/><path class="cls-1" d="M14.8,21.13a6.33,6.33,0,1,1,6.33-6.33A6.34,6.34,0,0,1,14.8,21.13Zm0-11.3a5,5,0,1,0,5,5A5,5,0,0,0,14.8,9.83Z"/></g></g></svg>