<?xml version="1.0" encoding="utf-8"?>
<!-- Generator: Adobe Illustrator 25.2.0, SVG Export Plug-In . SVG Version: 6.00 Build 0)  -->
<svg version="1.1" id="Layer_1" xmlns="http://www.w3.org/2000/svg" xmlns:xlink="http://www.w3.org/1999/xlink" x="0px" y="0px"
	 viewBox="0 0 29.6 29.6" style="enable-background:new 0 0 29.6 29.6;" xml:space="preserve">
<style type="text/css">
	.st0{fill:#FFFFFF;}
</style>
<g id="Layer_2_1_">
	<g id="Layer_1-2">
		<path class="st0" d="M13.9,29.6c-1.4,0-2.6-1.1-2.6-2.6c0,0,0,0,0,0v-0.8l-0.1,0c-0.6-0.2-1.3-0.5-1.9-0.8l-0.1-0.1l-0.6,0.5
			c-0.5,0.5-1.1,0.8-1.8,0.8c-0.7,0-1.3-0.2-1.8-0.7l-1.3-1.3c-1-1-1-2.6,0-3.6l0.6-0.6l-0.1-0.1c-0.3-0.6-0.6-1.2-0.8-1.9l0-0.1
			H2.6c-1.4,0-2.6-1.1-2.6-2.6c0,0,0,0,0,0v-1.9c0-1.4,1.1-2.6,2.6-2.6h0.8l0-0.1c0.2-0.6,0.5-1.3,0.8-1.9l0.1-0.1L3.7,8.6
			C3.2,8.1,2.9,7.5,2.9,6.8c0-0.7,0.3-1.3,0.8-1.8L5,3.7c1-1,2.6-1,3.6,0l0.6,0.6l0.1-0.1c0.6-0.3,1.2-0.6,1.9-0.8l0.1,0V2.6
			c0-1.4,1.1-2.6,2.6-2.6h1.9c1.4,0,2.6,1.1,2.6,2.6v0.8l0.1,0c0.6,0.2,1.3,0.5,1.9,0.8l0.1,0.1L21,3.7c0.5-0.5,1.1-0.8,1.8-0.8
			c0.7,0,1.3,0.3,1.8,0.8L25.9,5c1,1,1,2.6,0,3.6l-0.5,0.6l0.1,0.1c0.3,0.6,0.6,1.2,0.8,1.9v0.1H27c1.4,0,2.6,1.1,2.6,2.6v1.9
			c0,1.4-1.1,2.6-2.6,2.6h-0.8v0.1c-0.2,0.6-0.5,1.3-0.8,1.9l-0.1,0.1l0.5,0.6c0.5,0.5,0.8,1.1,0.8,1.8c0,0.7-0.3,1.3-0.8,1.8
			l-1.3,1.3c-1,1-2.6,1-3.6,0l-0.6-0.5l-0.1,0.1c-0.6,0.3-1.2,0.6-1.9,0.8l-0.1,0V27c0,1.4-1.1,2.6-2.6,2.6L13.9,29.6z M9.1,23.9
			c0.1,0,0.2,0,0.3,0.1c0.9,0.5,1.8,0.9,2.7,1.1c0.3,0.1,0.5,0.4,0.5,0.7V27c0,0.7,0.5,1.2,1.2,1.2h1.9c0.7,0,1.2-0.5,1.3-1.2
			c0,0,0,0,0,0v-1.3c0-0.3,0.2-0.6,0.5-0.7c0.9-0.2,1.8-0.6,2.7-1c0.1-0.1,0.2-0.1,0.4-0.1c0.2,0,0.4,0.1,0.5,0.2l0.9,0.9
			c0.2,0.2,0.5,0.4,0.9,0.4c0.3,0,0.6-0.1,0.9-0.4l1.4-1.4c0.2-0.2,0.4-0.5,0.4-0.9c0-0.3-0.1-0.6-0.4-0.9L24,21
			c-0.2-0.2-0.3-0.6-0.1-0.8c0.5-0.9,0.9-1.8,1.1-2.7c0.1-0.3,0.4-0.5,0.7-0.5H27c0.7,0,1.2-0.5,1.2-1.2v-1.9c0-0.7-0.5-1.2-1.2-1.2
			h-1.3c-0.3,0-0.6-0.2-0.7-0.5c-0.2-1-0.6-1.9-1-2.7c-0.2-0.3-0.1-0.6,0.1-0.8L25,7.7c0.2-0.2,0.4-0.5,0.4-0.8
			c0-0.3-0.1-0.6-0.4-0.8l-1.4-1.4c-0.2-0.2-0.5-0.4-0.9-0.3c-0.3,0-0.6,0.1-0.9,0.3L21,5.6c-0.1,0.1-0.3,0.2-0.5,0.2
			c-0.1,0-0.2,0-0.4-0.1c-0.9-0.5-1.8-0.9-2.7-1.1c-0.3-0.1-0.5-0.4-0.5-0.7V2.6c0-0.7-0.5-1.2-1.2-1.2h-1.9c-0.7,0-1.2,0.5-1.2,1.2
			v1.3c0,0.3-0.2,0.6-0.5,0.7c-1,0.2-1.9,0.6-2.7,1.1C9.3,5.7,9.2,5.7,9.1,5.8c-0.2,0-0.4-0.1-0.5-0.2L7.7,4.6
			C7.4,4.4,7.1,4.3,6.8,4.3C6.5,4.3,6.2,4.4,6,4.6L4.6,6C4.4,6.2,4.3,6.5,4.3,6.8c0,0.3,0.1,0.6,0.3,0.8l0.9,0.9
			c0.2,0.2,0.3,0.6,0.1,0.8c-0.5,0.9-0.9,1.8-1.1,2.7c-0.1,0.3-0.4,0.5-0.7,0.5H2.6c-0.7,0-1.2,0.5-1.2,1.2v1.9
			c0,0.7,0.5,1.2,1.2,1.2c0,0,0,0,0,0h1.3c0.3,0,0.6,0.2,0.7,0.5c0.2,1,0.6,1.9,1.1,2.7c0.2,0.3,0.1,0.6-0.1,0.8L4.6,22
			c-0.2,0.2-0.4,0.5-0.3,0.9c0,0.3,0.1,0.6,0.3,0.9L6,25c0.2,0.2,0.5,0.4,0.8,0.4c0.3,0,0.6-0.1,0.8-0.4l0.9-0.9
			C8.7,23.9,8.9,23.9,9.1,23.9z"/>
		<path class="st0" d="M14.8,21.1c-3.5,0-6.3-2.8-6.3-6.3c0-3.5,2.8-6.3,6.3-6.3c3.5,0,6.3,2.8,6.3,6.3
			C21.1,18.3,18.3,21.1,14.8,21.1z M14.8,9.8c-2.8,0-5,2.2-5,5s2.2,5,5,5s5-2.2,5-5l0,0C19.8,12.1,17.6,9.8,14.8,9.8z"/>
	</g>
</g>
</svg>
