<?xml version="1.0" encoding="utf-8"?>
<!-- Generator: Adobe Illustrator 25.2.0, SVG Export Plug-In . SVG Version: 6.00 Build 0)  -->
<svg version="1.1" id="Layer_1" xmlns="http://www.w3.org/2000/svg" xmlns:xlink="http://www.w3.org/1999/xlink" x="0px" y="0px"
	 viewBox="0 0 16.3 16.3" style="enable-background:new 0 0 16.3 16.3;" xml:space="preserve">
<style type="text/css">
	.st0{fill:#FFFFFF;}
	.st1{fill:#4044AB;}
</style>
<g id="Layer_2_1_">
	<g id="Layer_1-2">
		<circle class="st0" cx="3.3" cy="10.6" r="3.3"/>
		<circle class="st0" cx="11" cy="14.2" r="2"/>
		<circle class="st0" cx="11.4" cy="4.9" r="4.9"/>
	</g>
</g>
<g id="Layer_2_2_">
	<g id="Layer_1-2_1_">
		<path class="st1" d="M34.7,9.3c0-0.3,0-0.5,0-0.8c0-0.3,0-0.5-0.1-0.8l1.8-1.4c0.2-0.1,0.2-0.4,0.1-0.5l-1.7-2.9
			c-0.1-0.2-0.3-0.3-0.5-0.2l-2.1,0.8c-0.4-0.3-0.9-0.6-1.4-0.8l-0.3-2.2c0-0.2-0.2-0.4-0.4-0.4h-3.3c-0.2,0-0.4,0.2-0.4,0.4
			l-0.3,2.2c-0.5,0.2-1,0.5-1.4,0.8l-2.1-0.8c-0.2-0.1-0.4,0-0.5,0.2l-1.7,2.9c-0.1,0.2-0.1,0.4,0.1,0.5l1.8,1.4
			c0,0.3-0.1,0.5-0.1,0.8c0,0.3,0,0.5,0.1,0.8l-1.8,1.4c-0.2,0.1-0.2,0.4-0.1,0.5l1.7,2.9c0.1,0.2,0.3,0.3,0.5,0.2l2.1-0.8
			c0.4,0.3,0.9,0.6,1.4,0.8l0.3,2.2c0,0.2,0.2,0.4,0.4,0.4h3.4c0.2,0,0.4-0.2,0.4-0.4l0.3-2.2c0.5-0.2,1-0.5,1.4-0.8l2.1,0.8
			c0.2,0.1,0.4,0,0.5-0.2l1.7-2.9c0.1-0.2,0.1-0.4-0.1-0.5L34.7,9.3z M29.5,11.5c-1.6,0.6-3.4-0.3-4-2c-0.2-0.7-0.2-1.4,0-2
			c0.3-0.9,1-1.6,1.9-1.9c1.6-0.6,3.4,0.3,4,1.9c0.2,0.7,0.2,1.4,0,2.1C31.2,10.5,30.5,11.2,29.5,11.5z"/>
	</g>
</g>
</svg>
