<svg xmlns="http://www.w3.org/2000/svg" viewBox="0 0 220 31.97"><defs><style>.cls-1{fill:#fab42c;}.cls-2{opacity:0.4;}.cls-3{opacity:0.7;}</style></defs><g id="Layer_2" data-name="Layer 2"><g id="Layer_1-2" data-name="Layer 1"><path d="M92.72,16.49A20.29,20.29,0,0,0,85,12.37a20,20,0,0,1-4-1.69A2,2,0,0,1,79.87,9a1.66,1.66,0,0,1,.37-1,3,3,0,0,1,1.2-.82,5.36,5.36,0,0,1,2-.34,3.64,3.64,0,0,1,2.62.83A2.68,2.68,0,0,1,87,9.82a.34.34,0,0,0,.34.34h7.76a.34.34,0,0,0,.33-.34,9.2,9.2,0,0,0-1.53-5.29,9.69,9.69,0,0,0-4.2-3.37,15.34,15.34,0,0,0-6-1.16,18,18,0,0,0-6.22,1.05A10.07,10.07,0,0,0,73,4.12,7.6,7.6,0,0,0,71.4,8.88a7.54,7.54,0,0,0,1.5,4.76,12.1,12.1,0,0,0,3.74,3.23A35.22,35.22,0,0,0,82,19.15a18.37,18.37,0,0,1,3.19,1.31,4,4,0,0,1,1.35,1.09,2.4,2.4,0,0,1,.34,1.31,1.81,1.81,0,0,1-.75,1.5,4,4,0,0,1-2.44.64A7.9,7.9,0,0,1,81,24.62a2.51,2.51,0,0,1-1.46-1.23A5.21,5.21,0,0,1,79,20.91a.34.34,0,0,0-.34-.33h-7.8a.34.34,0,0,0-.34.33,9.79,9.79,0,0,0,1.92,6.19,11.25,11.25,0,0,0,4.91,3.6,18.17,18.17,0,0,0,6.4,1.12,16.89,16.89,0,0,0,6.11-1A8.83,8.83,0,0,0,94,27.73a8.14,8.14,0,0,0,1.46-4.87A8.38,8.38,0,0,0,92.72,16.49Z"/><path d="M69.86,24.47H56.71L70.12,4.91c0-.08.08-.11.08-.19V.79a.34.34,0,0,0-.34-.34H52.7l-3.45,7h10L45.72,26.87c0,.08-.07.11-.07.19v4.05a.34.34,0,0,0,.34.33H69.82a.34.34,0,0,0,.34-.33V24.85A.32.32,0,0,0,69.86,24.47Z"/><path d="M26.09,14.28H13.49a.33.33,0,0,0-.33.34v5.51a.33.33,0,0,0,.33.33H18v3.6a4.44,4.44,0,0,1-1.23.56,8,8,0,0,1-2.29.3A5,5,0,0,1,10,23c-.9-1.31-1.39-3.41-1.39-6.26V15.14A11.25,11.25,0,0,1,10,9a4.09,4.09,0,0,1,3.56-2h0l11.24.45-3.48-7L13.57,0h-.19a13.35,13.35,0,0,0-6.9,1.8A12.32,12.32,0,0,0,1.72,7.08,18.47,18.47,0,0,0,0,15.25v1.58A18.18,18.18,0,0,0,1.69,25a12,12,0,0,0,4.79,5.21A14.7,14.7,0,0,0,13.79,32a23.28,23.28,0,0,0,5.59-.64,17.58,17.58,0,0,0,4.23-1.57,11,11,0,0,0,2.7-2,.29.29,0,0,0,.11-.22V14.73C26.42,14.43,26.27,14.28,26.09,14.28Z"/><path d="M50.93.6a.33.33,0,0,0-.3-.15H42.28a.35.35,0,0,0-.34.22L37,12.52,32,.67a.31.31,0,0,0-.33-.22H23.35a.44.44,0,0,0-.3.15.27.27,0,0,0,0,.34l9.63,19.49v9.48l8.62-3.67V20.43L50.93.94A.27.27,0,0,0,50.93.6Z"/><path class="cls-1" d="M32.68,30.73V31s0,.49.34.49h7.91c.33,0,.33-.49.33-.49V27.06Z"/><path class="cls-1" d="M112.4,15.59,104.79,8V23.91l7.61-7.61A.56.56,0,0,0,112.4,15.59Z"/><g class="cls-2"><path d="M126.19,4.09h1.42l-2.13,10h-1.43l-2.13-10h1.42l1,5.35.38,2.52.37-2.52Z"/><path d="M134.59,7.23v3.64c0,2-.72,3.33-2.78,3.33S129,12.93,129,10.87V7.23c0-2.06.71-3.26,2.77-3.26S134.59,5.25,134.59,7.23ZM130.5,6.9v4.34c0,1.09.26,1.8,1.35,1.8s1.35-.71,1.35-1.8V6.9c0-1.09-.26-1.73-1.35-1.73S130.5,5.81,130.5,6.9Z"/><path d="M142.27,7.23v3.64c0,2-.71,3.33-2.77,3.33s-2.78-1.27-2.78-3.33V7.23c0-2.06.71-3.26,2.78-3.26S142.27,5.25,142.27,7.23Zm-4.09-.33v4.34c0,1.09.27,1.8,1.35,1.8s1.35-.71,1.35-1.8V6.9c0-1.09-.26-1.73-1.35-1.73S138.18,5.81,138.18,6.9Z"/><path d="M148.34,9.11l1.61,5h-1.42l-1.46-4.65H146v4.65h-1.42v-10h1.79c2.07,0,3.23.71,3.23,2.69A2.15,2.15,0,0,1,148.34,9.11Zm-2-3.94H146V8.4h.37c1.16,0,1.8-.45,1.8-1.62S147.55,5.17,146.39,5.17Z"/></g><g class="cls-3"><path d="M159.17,5.36h-1.8v8.77H156V5.36h-1.8V4.09h5Z"/><path d="M162.4,9.44V13h2.51v1.09H161v-10h3.94V5.17H162.4V8.4h1.79V9.48H162.4Z"/><path d="M169.44,14.2c-2.17,0-2.77-1.53-2.77-3.67V7.68c0-2.17.6-3.67,2.77-3.67s2.66,1.31,2.66,3.34h-1.42c0-1.24,0-2.14-1.24-2.14s-1.31.94-1.31,2.14v3.59c0,1.09.22,2.14,1.31,2.14s1.24-1.05,1.24-2.14v-.37h1.42v.37C172.1,12.89,171.43,14.2,169.44,14.2Z"/><path d="M175.55,9.44v4.65h-1.42v-10h1.42V8.4h2.51V4.09h1.43v10h-1.43V9.48l-2.51,0Z"/><path d="M183.46,7.42v6.67H182v-10h1.09l2.51,6.22V4.09h1.43v10h-1Z"/><path d="M191,4.09v10H189.6v-10Z"/><path d="M195.9,5.17a1,1,0,0,0-1.09,1.09,1.85,1.85,0,0,0,.72,1.42l1.8,1.43a3.52,3.52,0,0,1,1.42,2.77,2.26,2.26,0,0,1-2.51,2.36c-1.88,0-2.77-1.2-2.85-3l1.42-.37c0,1.05.34,2.13,1.43,2.13A1,1,0,0,0,197.33,12a2.24,2.24,0,0,0-1.09-1.8l-1.8-1.43a2.92,2.92,0,0,1-1.09-2.32A2.32,2.32,0,0,1,195.86,4a2.58,2.58,0,0,1,2.85,2.63L197.29,7C197.29,6,196.91,5.17,195.9,5.17Z"/><path d="M203.47,14.2c-2.17,0-2.77-1.53-2.77-3.67V7.68c0-2.17.6-3.67,2.77-3.67s2.66,1.31,2.66,3.34h-1.42c0-1.24,0-2.14-1.24-2.14s-1.31.94-1.31,2.14v3.59c0,1.09.23,2.14,1.31,2.14s1.24-1.05,1.24-2.14v-.37h1.42v.37C206.13,12.89,205.5,14.2,203.47,14.2Z"/><path d="M209.62,9.44v4.65h-1.43v-10h1.43V8.4h2.51V4.09h1.42v10h-1.42V9.48l-2.51,0Z"/><path d="M217.49,9.44V13H220v1.09h-3.94v-10H220V5.17h-2.51V8.4h1.8V9.48h-1.8Z"/><path d="M125.07,23.2H124v4.65h-1.42v-10h2.51c1.8,0,2.51,1.09,2.51,2.85A2.27,2.27,0,0,1,125.07,23.2Zm-.72-4.27H124v3.22h.37c1.2,0,1.8-.22,1.8-1.42C126.15,19.3,125.78,18.93,124.35,18.93Z"/><path d="M133.24,22.86l1.61,5h-1.43L132,23.24h-1.08v4.64h-1.43v-10h1.8c2.06,0,3.22.71,3.22,2.7A2.23,2.23,0,0,1,133.24,22.86Zm-2-3.93h-.37v3.22h.37c1.16,0,1.8-.45,1.8-1.61S132.41,18.93,131.25,18.93Z"/><path d="M141.78,21v3.63c0,2-.71,3.34-2.77,3.34s-2.77-1.28-2.77-3.34V21c0-2.06.71-3.26,2.77-3.26S141.78,19,141.78,21Zm-4.08-.34V25c0,1.09.26,1.8,1.35,1.8s1.35-.71,1.35-1.8V20.65c0-1.09-.27-1.72-1.35-1.72S137.7,19.56,137.7,20.65Z"/><path d="M145.57,18.93v3.22h1.8v1.09h-1.8v4.64h-1.43v-10h3.94v1.09Z"/><path d="M151.23,23.2v3.6h2.51v1.08H149.8v-10h3.94v1.09h-2.51v3.22H153v1.09l-1.8,0Z"/><path d="M157.94,18.93A1,1,0,0,0,156.85,20a1.91,1.91,0,0,0,.71,1.43l1.8,1.42a3.5,3.5,0,0,1,1.42,2.78A2.27,2.27,0,0,1,158.27,28c-1.87,0-2.77-1.2-2.85-3l1.43-.38c0,1.05.34,2.14,1.42,2.14a1,1,0,0,0,1.09-1.09,2.21,2.21,0,0,0-1.09-1.8l-1.8-1.42a3,3,0,0,1-1.08-2.33,2.32,2.32,0,0,1,2.51-2.43,2.58,2.58,0,0,1,2.85,2.62l-1.43.38C159.32,19.75,159,18.93,157.94,18.93Z"/><path d="M165.21,18.93A1,1,0,0,0,164.12,20a1.91,1.91,0,0,0,.71,1.43l1.8,1.42a3.5,3.5,0,0,1,1.42,2.78A2.27,2.27,0,0,1,165.54,28c-1.87,0-2.77-1.2-2.84-3l1.42-.38c0,1.05.34,2.14,1.42,2.14a1,1,0,0,0,1.09-1.09,2.21,2.21,0,0,0-1.09-1.8l-1.8-1.42a3,3,0,0,1-1.08-2.33,2.32,2.32,0,0,1,2.51-2.43A2.58,2.58,0,0,1,168,20.35l-1.43.38C166.56,19.75,166.22,18.93,165.21,18.93Z"/><path d="M171.69,17.84v10h-1.42v-10Z"/><path d="M179.64,21v3.63c0,2-.72,3.34-2.78,3.34s-2.77-1.28-2.77-3.34V21c0-2.06.71-3.26,2.77-3.26S179.64,19,179.64,21Zm-4.09-.34V25c0,1.09.26,1.8,1.35,1.8s1.35-.71,1.35-1.8V20.65c0-1.09-.26-1.72-1.35-1.72S175.55,19.56,175.55,20.65Z"/><path d="M183.42,21.21v6.67H182v-10h1.08l2.51,6.22V17.84H187v10h-1Z"/><path d="M190.28,27.88h-1.42l2.13-10h1.43l2.13,10h-1.42l-.53-2.51h-1.8ZM191.7,20,191,24.29h1.43Z"/><path d="M196.39,17.84h1.42v9h2.51v1.08h-3.93Z"/><path d="M204.33,18.93A1,1,0,0,0,203.25,20a1.88,1.88,0,0,0,.71,1.43l1.8,1.42a3.5,3.5,0,0,1,1.42,2.78A2.27,2.27,0,0,1,204.67,28c-1.87,0-2.77-1.2-2.85-3l1.43-.38c0,1.05.33,2.14,1.42,2.14a1,1,0,0,0,1.09-1.09,2.21,2.21,0,0,0-1.09-1.8l-1.8-1.42a3,3,0,0,1-1.08-2.33,2.32,2.32,0,0,1,2.51-2.43,2.57,2.57,0,0,1,2.84,2.62l-1.42.38C205.72,19.75,205.35,18.93,204.33,18.93Z"/></g></g></g></svg>