<svg xmlns="http://www.w3.org/2000/svg" viewBox="0 0 18.16 63.98"><defs><style>.cls-1{fill:#fff;}.cls-2{fill:#fab42c;}.cls-3{fill:#f9b42d;}</style></defs><g id="Layer_2" data-name="Layer 2"><g id="Layer_1-2" data-name="Layer 1"><path class="cls-1" d="M9.38,11.26A11.72,11.72,0,0,0,7,15.65a12,12,0,0,1-1,2.26,1.14,1.14,0,0,1-.94.67.93.93,0,0,1-.6-.22,1.71,1.71,0,0,1-.47-.68,3,3,0,0,1-.19-1.15A2.08,2.08,0,0,1,4.35,15a1.53,1.53,0,0,1,1.23-.49.2.2,0,0,0,.2-.2V9.92a.19.19,0,0,0-.2-.19,5.22,5.22,0,0,0-3,.87A5.56,5.56,0,0,0,.66,13,8.63,8.63,0,0,0,0,16.42,10.11,10.11,0,0,0,.6,20a5.65,5.65,0,0,0,1.74,2.49,4.33,4.33,0,0,0,2.71.92,4.36,4.36,0,0,0,2.71-.85,6.88,6.88,0,0,0,1.83-2.13,19.67,19.67,0,0,0,1.3-3.05,9.8,9.8,0,0,1,.75-1.81,2.18,2.18,0,0,1,.62-.77,1.29,1.29,0,0,1,.74-.19,1.06,1.06,0,0,1,.86.42,2.29,2.29,0,0,1,.36,1.39A4.86,4.86,0,0,1,14,17.94a1.46,1.46,0,0,1-.71.83,2.92,2.92,0,0,1-1.41.27.2.2,0,0,0-.19.2v4.43a.19.19,0,0,0,.19.19,5.56,5.56,0,0,0,3.52-1.09A6.39,6.39,0,0,0,17.46,20a10.35,10.35,0,0,0,.64-3.64,9.47,9.47,0,0,0-.58-3.48,4.94,4.94,0,0,0-1.75-2.32A4.57,4.57,0,0,0,13,9.71,4.86,4.86,0,0,0,9.38,11.26Z"/><path class="cls-1" d="M13.94,24.27v7.48L2.81,24.12s-.06-.05-.1-.05H.45a.19.19,0,0,0-.19.2V34l4,2V30.26l11,7.69c.05,0,.07,0,.11,0h2.3a.18.18,0,0,0,.19-.19V24.25a.19.19,0,0,0-.19-.2H14.13A.23.23,0,0,0,13.94,24.27Z"/><path class="cls-1" d="M8.12,49.16v7.17a.2.2,0,0,0,.19.19h3.14a.2.2,0,0,0,.19-.19V53.79h2a3.32,3.32,0,0,1,.32.7,4.88,4.88,0,0,1,.17,1.3,2.89,2.89,0,0,1-1.09,2.52,6.44,6.44,0,0,1-3.56.79H8.61a6.43,6.43,0,0,1-3.52-.79,2.33,2.33,0,0,1-1.1-2H4l.25-6.39-4,2L0,56.26H0v.11a7.59,7.59,0,0,0,1,3.92A7,7,0,0,0,4,63a10.41,10.41,0,0,0,4.64,1h.9a10.4,10.4,0,0,0,4.65-1,6.82,6.82,0,0,0,3-2.73,8.33,8.33,0,0,0,1-4.15A13.38,13.38,0,0,0,17.8,53a9.63,9.63,0,0,0-.9-2.41A6,6,0,0,0,15.77,49a.15.15,0,0,0-.12-.07H8.31A.23.23,0,0,0,8.12,49.16Z"/><path class="cls-1" d="M.34,35a.2.2,0,0,0-.08.17V40a.21.21,0,0,0,.12.19L7.12,43,.38,45.78A.18.18,0,0,0,.26,46v4.75a.27.27,0,0,0,.08.17.17.17,0,0,0,.19,0l11.09-5.48H17l-2.09-4.9h-3.3L.53,35A.16.16,0,0,0,.34,35Z"/><path class="cls-2" d="M17.48,45.41h.15s.28,0,.28-.19v-4.5c0-.19-.28-.19-.28-.19H15.39Z"/><path class="cls-3" d="M8.91.07,4.58,4.4h9.06L9.32.07A.34.34,0,0,0,8.91.07Z"/></g></g></svg>