<?xml version="1.0" encoding="utf-8"?>
<!-- Generator: Adobe Illustrator 25.2.0, SVG Export Plug-In . SVG Version: 6.00 Build 0)  -->
<svg version="1.1" id="Layer_1" xmlns="http://www.w3.org/2000/svg" xmlns:xlink="http://www.w3.org/1999/xlink" x="0px" y="0px"
	 viewBox="0 0 16.3 16.7" style="enable-background:new 0 0 16.3 16.7;" xml:space="preserve">
<style type="text/css">
	.st0{fill:#3A3D99;}
</style>
<g id="Layer_2_1_">
	<g id="Layer_1-2">
		<path class="st0" d="M14.3,9.2c0-0.3,0-0.5,0.1-0.8c0-0.3,0-0.5-0.1-0.8l1.8-1.4c0.2-0.1,0.2-0.4,0.1-0.5l-1.7-2.9
			c-0.1-0.2-0.3-0.3-0.5-0.2l-2.1,0.8c-0.4-0.3-0.9-0.6-1.4-0.8l-0.3-2.2C10.2,0.2,10,0,9.8,0H6.5C6.3,0,6.1,0.2,6.1,0.4L5.7,2.6
			c-0.5,0.2-1,0.5-1.4,0.8L2.2,2.5C2,2.5,1.8,2.6,1.7,2.7L0.1,5.6C0,5.8,0,6,0.2,6.2L2,7.6c0,0.3-0.1,0.5-0.1,0.8
			c0,0.3,0,0.5,0.1,0.8l-1.8,1.4C0,10.7,0,10.9,0.1,11.1L1.7,14c0.1,0.2,0.3,0.3,0.5,0.2l2.1-0.8c0.4,0.3,0.9,0.6,1.4,0.8L6,16.4
			c0,0.2,0.2,0.4,0.4,0.4h3.4c0.2,0,0.4-0.2,0.4-0.4l0.3-2.2c0.5-0.2,1-0.5,1.4-0.8l2.1,0.8c0.2,0.1,0.4,0,0.5-0.2l1.7-2.9
			c0.1-0.2,0.1-0.4-0.1-0.5L14.3,9.2z M9.2,11.3c-1.6,0.6-3.4-0.3-4-2C5,8.6,5,7.9,5.2,7.3c0.3-0.9,1-1.6,1.9-1.9
			c1.6-0.6,3.4,0.3,4,1.9c0.2,0.7,0.2,1.4,0,2.1C10.8,10.3,10.1,11,9.2,11.3z"/>
	</g>
</g>
</svg>
