<?xml version="1.0" encoding="utf-8"?>
<!-- Generator: Adobe Illustrator 25.2.0, SVG Export Plug-In . SVG Version: 6.00 Build 0)  -->
<svg version="1.1" id="Layer_1" xmlns="http://www.w3.org/2000/svg" xmlns:xlink="http://www.w3.org/1999/xlink" x="0px" y="0px"
	 viewBox="0 0 15 57.8" style="enable-background:new 0 0 15 57.8;" xml:space="preserve">
<style type="text/css">
	.st0{fill:#323584;}
	.st1{fill:#FFFFFF;}
</style>
<g>
	<path class="st0" d="M15,0v57.8c-0.1-4.3-1.3-8.4-3.6-12C6.9,39,0,36.9,0,28.9S6.9,18.8,11.4,12C13.7,8.4,14.9,4.3,15,0z"/>
	<path class="st1" d="M8.9,31.6l3.5,3.7c0.6,0.6,1.5,0.6,2.1,0.1c0.3-0.3,0.5-0.7,0.5-1.1V23.4c0-0.8-0.7-1.5-1.5-1.4
		c-0.4,0-0.8,0.2-1,0.4L9,26.1C7.5,27.7,7.5,30.1,8.9,31.6z"/>
</g>
</svg>
